<svg id="em4pyNAQPc91" xmlns="http://www.w3.org/2000/svg" xmlns:xlink="http://www.w3.org/1999/xlink" viewBox="0 0 600 600" shape-rendering="geometricPrecision" text-rendering="geometricPrecision"><path d="M343.574,249c8.684-2.743,17.244,3.475,17.631,3.765c12.211,9.142,8.893,28.6,8.391,31.543-2.426,14.23-12.984,31.513-26.853,32.234-3.787737.286171-7.558566-.739957-10.679-2.906-15.652-11.663-7.864-58.521,11.513-64.636Z" fill="#fff" fill-rule="evenodd"/><path d="M225.185,268.929c-9.08-5.121-20.816.22-24.007,8.31-2.653,6.73,1.384,13.4,2.049,14.462.84,1.338,5.306,8.048,13.549,8.37c6.250764.181138,12.06486-3.193501,15.008-8.711c4.001738-8.052704,1.125263-17.828797-6.6-22.431v0Z" fill="#5ce1e6" fill-rule="evenodd"/><path d="M250.724,387.98c3.858868,6.26287,11.263821,9.390825,18.444,7.791c3.863473-.848336,7.271605-3.107231,9.558-6.335c4.6-6.9,3.5-18.785-5.155-24-7.481841-4.369302-17.050458-2.43812-22.252,4.491-3.723114,5.379736-3.955802,12.439789-.595,18.053Z" fill="#fff0a6" fill-rule="evenodd"/><path d="M141.355,163.8c3.858793,6.263009,11.263627,9.391315,18.444,7.792c3.863206-.849581,7.271032-3.108629,9.558-6.336c4.6-6.9,3.5-18.784-5.155-24-7.481841-4.369302-17.050458-2.43812-22.252,4.491-3.721406,5.378823-3.954076,12.436763-.595,18.049v0ZM443.563,454.7c3.85921,6.263034,11.264528,9.390972,18.445,7.791c3.863299-.848727,7.271093-3.107991,9.557-6.336c4.6-6.9,3.5-18.784-5.155-24-7.481456-4.369651-17.050069-2.438383-22.251,4.491-3.721364,5.378003-3.954427,12.435188-.596,18.047Z" fill="#fff" fill-rule="evenodd"/><path d="M164.329,451.266c2.272971,3.688331,6.634413,5.529989,10.863,4.587c2.275281-.500389,4.282297-1.831031,5.629-3.732c2.71-4.06,2.064-11.062-3.037-14.13-4.405077-2.568524-10.035408-1.432572-13.1,2.643-2.192646,3.16687-2.329539,7.323732-.35,10.628v0Zm398.56-163.924c2.27248,3.688953,6.634161,5.531114,10.863,4.588c2.27509-.50084,4.281956-1.831382,5.629-3.732c2.71-4.06,2.064-11.062-3.037-14.13-4.406052-2.572502-10.040448-1.436164-13.105,2.643-2.192646,3.16687-2.329539,7.323732-.35,10.628v0Z" fill="#5ce1e6" fill-rule="evenodd"/><path d="M307.549,137.375c-11.246-3.292-24.672,10.685-22.813,19.851.834,4.114,4.553,6.336,5.339,6.779c9.4,5.3,27.207-2.423,27.911-12.831.4-5.839-4.62-12.1-10.437-13.8v0Z" fill="#39a834" fill-rule="evenodd"/><path d="M457.868,286.155c-11.247-3.292-24.672,10.685-22.814,19.851.834,4.114,4.554,6.336,5.34,6.779c9.4,5.3,27.2-2.423,27.911-12.831.395-5.839-4.62-12.096-10.437-13.799Z" fill="#fff0a6" fill-rule="evenodd"/><path d="M41.791,334.761c-11.247-3.291-24.672,10.686-22.814,19.852.834,4.114,4.554,6.336,5.339,6.779c9.4,5.3,27.207-2.424,27.911-12.832.397-5.838-4.619-12.096-10.436-13.799Z" fill="#39a834" fill-rule="evenodd"/></svg>
