<svg id="e3pAWBesPai1" xmlns="http://www.w3.org/2000/svg" xmlns:xlink="http://www.w3.org/1999/xlink" viewBox="0 0 172 172" shape-rendering="geometricPrecision" text-rendering="geometricPrecision"><path d="M30.531,127.174c23.009049,25.042255,55.747663,38.875051,89.742,37.918q.771-18.9,1.394-37.806q1.581-47.931,2.215-95.947Z" fill="#f7bfd5" fill-rule="evenodd"/><path d="M63.058,102.362c1.108-2.448-.544-4.828-2.663-5.846l-4.961,5.093c1.59,2.767,6.1,4.128,7.624.752v0Zm-7.329,13.552c-1.588.636-1.919,2.155-2.142,3.612-.250438,1.494499.485088,2.981269,1.825,3.689c1.284.714,3.3.73,4.213-.351c1.17-1.391,2.3-2.737,1.59-4.735-.418062-1.034272-1.238409-1.854299-2.272845-2.271957s-2.194172-.397101-3.213155.056957v0Zm54.961,8.481c1.17-1.392,2.305-2.738,1.59-4.735-.418079-1.034521-1.238532-1.854787-2.273148-2.272631s-2.194599-.397404-3.213852.056631c-1.588.636-1.919,2.155-2.142,3.612-.250438,1.494499.485088,2.981269,1.825,3.689c1.284.714,3.305.73,4.213-.351v0Zm-30.3-12.238c1.675-3.7-4.556-7.2-6.241-3.483s4.551,7.205,6.238,3.483Zm.944-27.425c1.312-2.9-2.225-5.675-4.631-4.955l-1.73,1.773c-1.221,3.584,4.718,6.8,6.357,3.183v0ZM65.592,137.655c.062816,1.259468.711981,2.416788,1.754,3.127c1.264929.798671,2.884544.764822,4.115-.086c1.400148-1.207449,1.801387-3.211586.974-4.865-.347677-.732694-.910321-1.342079-1.613-1.747-.898194-.544979-1.986067-.681372-2.991-.375-1.506093.710246-2.402874,2.290822-2.24,3.948v0ZM106.94,55.822c2.207-.992,2.466-4.479-.16-5.941-.213202-.117794-.435596-.218122-.665-.3q-2.338,2.4-4.678,4.8c.212,2.285,4.12,3.509,5.503,1.441ZM41.058,131.058c1.739-3.841-4.731-7.481-6.481-3.617-1.739,3.841,4.732,7.481,6.481,3.617Zm61.87-55.543c1.739-3.841-4.732-7.481-6.481-3.617s4.731,7.482,6.481,3.617Zm-9.842,57.746c2.1-4.641-5.719-9.041-7.834-4.369s5.718,9.042,7.834,4.369ZM121.271,89.98c2.1-4.641-5.718-9.041-7.833-4.37s5.718,9.042,7.833,4.37ZM69.907,155.291c.958.42,1.909.816,2.857,1.2.565166-.897539.676244-2.00832.3-3-.417852-1.034708-1.238285-1.855162-2.272983-2.273039s-2.194798-.397288-3.214017.057039c-.905159.37094-1.579544,1.150791-1.816,2.1q2.022.981,4.148,1.918v0ZM123.285,31.953l-5.564,5.712c.336183.561892.817328,1.023003,1.393,1.335c1.284.714,3.3.73,4.213-.351.155-.185.309-.368.459-.552q.042-2.862.083-5.724c-.180629-.158983-.375823-.300607-.583-.423v0ZM95.513,97.746c-.250438,1.494499.485088,2.981269,1.825,3.689c1.284.714,3.3.73,4.212-.351c1.171-1.391,2.305-2.737,1.59-4.735-.418095-1.034265-1.238379-1.854333-2.272754-2.272156s-2.194102-.397555-3.213246.056156c-1.588.637-1.919,2.155-2.142,3.612v0Zm-.288,52.616c1.675-3.7-4.556-7.2-6.241-3.483s4.555,7.205,6.241,3.483Zm10.126,8.839c-3.03-1.688-5.836.912-5.181,3.425-.017.049-.033.1-.05.148-.128076.369499-.155345.766458-.079,1.15c2.169.317,4.241.558,6.2.739.772953-.776775,1.126327-1.877218.950124-2.958785s-.860588-2.012945-1.840124-2.504215Zm4.128-16.323c-1.739,3.842,4.732,7.482,6.481,3.617s-4.731-7.481-6.481-3.617Zm10.928-78.211c1.739-3.841-4.731-7.481-6.481-3.617s4.731,7.482,6.481,3.617Z" fill="#fff" fill-rule="evenodd"/><path d="M138.757,48.871c-.282226-2.051546-1.059226-4.003657-2.264-5.688c1.022846-1.081253,1.806518-2.365793,2.3-3.77.858686-2.277405.731163-4.809396-.352-6.989-1.311552-2.583744-3.806426-4.36037-6.677026-4.754781s-5.752182.643508-7.711974,2.777781c-.394378-1.129138-.611944-2.312427-.645-3.508-.047-1.767.232-6.178,3.811-8.972c1.561515-1.202891,3.425134-1.950761,5.385-2.161.036346,1.722906.55988,3.400294,1.51,4.838c1.477,2.19,3.108,3.239,4.593,2.956c1.137304-.253232,2.048389-1.102328,2.381-2.219.661-2.321-1.892-4.937-3.826-5.973-1.030275-.545428-2.167694-.858116-3.332-.916.052337-.657598.170939-1.308231.354-1.942.587693-1.836474,1.717152-3.452227,3.24-4.635.281113-.223399.327899-.632387.1045-.9135s-.632387-.327899-.9135-.1045c-1.727643,1.345346-3.008024,3.181732-3.673,5.268-.222089.763868-.361554,1.549367-.416,2.343-2.258601.209598-4.41167,1.054531-6.21,2.437-4.044,3.157-4.36,8.064-4.309,10.027.030539,1.114594.20567,2.220505.521,3.29-.567762-.071182-1.144315-.000402-1.678.206-1.033921.452475-1.90903,1.203613-2.513,2.157-1.712,2.421-2.392,5.32-3.05,8.128-.291,1.244-.593,2.532-.979,3.744-1.679,5.256-5.239,9.337-9.525,10.916-.852.314-2.969.918-4.2-.247-.125171-.118795-.292499-.182848-.465-.178-.262619.006791-.49515.17147-.588736.416941s-.029706.523157.161736.703059c.291103.27465.626047.498735.991.663c1.483892.522165,3.109221.471886,4.558-.141c4.658-1.716,8.512-6.1,10.311-11.738.4-1.26.709-2.57,1.007-3.844.629-2.684,1.28-5.459,2.847-7.674.459521-.743742,1.128517-1.335158,1.923-1.7.571492-.236485,1.220098-.19627,1.758.109v.006c.018.044.036.089.055.133.145846.327419.528639.475712.857.332.067859-.029737.129839-.071395.183-.123c1.008-.278,4.261-.967,6.588.9c1.881,1.51,2.551,4.256,1.816,7.385-2.432-.817-5.558-.745-6.829,1.011-.509782.667082-.681863,1.532656-.466,2.344.323666.718524.932087,1.26969,1.679,1.521.766422.304004,1.576793.482623,2.4.529-.951202.810552-2.086717,1.37539-3.307,1.645-.413679.08757-.833672.142075-1.256.163-.260387-1.672705-1.201556-3.16301-2.6-4.117-.955-.547-2.783-1.028-3.9-.114-.600463.492931-.917687,1.251346-.847,2.025.174939.816516.682281,1.523172,1.4,1.95c1.448924.931024,3.116813,1.465493,4.837,1.55.103759,1.031888.021798,2.07402-.242,3.077-.574014,1.732186-1.577576,3.290684-2.917,4.53-1.353,1.468-2.753,2.985-3.024,5.352-.122667.917024-.009077,1.850183.33,2.711.613094,1.383815,1.743343,2.472788,3.149,3.034.063.029.129.058.2.085c1.309002.545297,2.752895.679572,4.14.385.350977-.073178.576178-.417023.503-.768s-.417023-.576178-.768-.503c-1.128554.241802-2.303976.134375-3.37-.308-1.170877-.417356-2.124757-1.287992-2.647-2.416-.255428-.658532-.338719-1.371319-.242-2.071.223-1.948,1.422-3.247,2.691-4.622c1.490361-1.386162,2.59774-3.133512,3.215-5.073.292274-1.111152.390384-2.264445.29-3.409c2.438852-.155313,4.710218-1.293883,6.294-3.155.832481-.094248,1.646546-.310569,2.416-.642.618734-.278651,1.199143-.635567,1.727-1.062c1.026223,1.473524,1.687716,3.169757,1.93,4.949.634,5.691-4.367,9.647-4.58,9.813-.281992.220251-.332946.626994-.114.91.065108.082701.149133.148549.245.192.219696.099939.476729.069496.667-.079.593-.46,5.775-4.681,5.074-10.98v0Zm-7.333-5.287c-.203814.328653-.429314.643351-.675.942-1.077595.092837-2.162436-.0519-3.178-.424-.407697-.126723-.752183-.403313-.964-.774-.058353-.403379.049953-.813137.3-1.135.883-1.222,3.434-1.221,5.412-.529-.231112.66875-.530703,1.311831-.894,1.919v0Zm5.861-10.565c.917096,1.86296,1.01852,4.023311.28,5.964-.419806,1.195681-1.079268,2.293083-1.938,3.225-.512749-.49561-1.091563-.917943-1.72-1.255.73-2.917.516-6.727-2.229-8.93-1.669801-1.22397-3.747106-1.757265-5.8-1.489c1.032365-.831769,2.267764-1.373357,3.579-1.569c3.192483-.384777,6.295424,1.222422,7.823,4.052v0Zm-3.771,9.2c.418203.245453.807626.536934,1.161.869-.429784.339774-.900038.62495-1.4.849-.230078.101168-.466196.188001-.707.26.376577-.627814.692343-1.290154.943-1.978v0Zm.386-26.433c.960869.054384,1.898776.314952,2.75.764c1.582.848,3.627,2.929,3.187,4.474-.198688.645186-.72146,1.138726-1.377,1.3-.927.177-2.118-.7-3.268-2.4-.810015-1.229481-1.257743-2.662071-1.292-4.134v0ZM123.556,47.6c-1.370532-.105434-2.694084-.54639-3.854-1.284-.409416-.230419-.716345-.60738-.859-1.055-.014562-.329065.126579-.645798.381-.855.698347-.321203,1.509073-.283928,2.175.1.092.042.179.087.261.133.989522.706471,1.669734,1.76617,1.9,2.96v0Z" fill="#211f1e" fill-rule="evenodd"/></svg>
