<svg id="right_dots" xmlns="http://www.w3.org/2000/svg" xmlns:xlink="http://www.w3.org/1999/xlink" viewBox="0 0 600 600" shape-rendering="geometricPrecision" text-rendering="geometricPrecision"><path id="right_dots-u-path-37" d="M256.194,248.655c-8.684-2.743-17.245,3.475-17.631,3.765-12.211,9.142-8.893,28.6-8.392,31.543c2.427,14.23,12.984,31.513,26.854,32.234c3.787418.286103,7.557909-.74003,10.678-2.906c15.653-11.659,7.863-58.517-11.512-64.633Z" fill="#fff" fill-rule="evenodd"/><path id="right_dots-u-path-38" d="M374.583,268.588c9.08-5.121,20.816.22,24.007,8.31c2.653,6.73-1.384,13.4-2.049,14.462-.84,1.338-5.306,8.048-13.549,8.37-6.251.181048-12.065346-3.193512-15.009-8.711-4.001738-8.052704-1.125263-17.828797,6.6-22.431v0Z" fill="#5ce1e6" fill-rule="evenodd"/><path id="right_dots-u-path-39" d="M349.044,387.639c-3.858868,6.26287-11.263821,9.390825-18.444,7.791-3.86326-.848204-7.271121-3.107155-9.557-6.335-4.6-6.9-3.5-18.785,5.155-24c7.481535-4.369173,17.049811-2.437974,22.251,4.491c3.723614,5.37957,3.956313,12.439921.595,18.053Z" fill="#fff0a6" fill-rule="evenodd"/><path id="right_dots-u-path-40" d="M458.413,163.456c-3.859135,6.263172-11.264334,9.391462-18.445,7.792-3.863108-.849178-7.270752-3.108342-9.557-6.336-4.6-6.9-3.5-18.784,5.155-24c7.481535-4.369173,17.049811-2.437974,22.251,4.491c3.723466,5.377664,3.958103,12.435924.6,18.049v0ZM156.2,454.352c-3.85866,6.263112-11.263792,9.391142-18.444,7.791-3.863512-.848859-7.271577-3.108066-9.558-6.336-4.6-6.9-3.5-18.784,5.155-24c7.481841-4.369302,17.050458-2.43812,22.252,4.491c3.724041,5.379799,3.956745,12.440677.595,18.054Z" fill="#fff" fill-rule="evenodd"/><path id="right_dots-u-path-41" d="M435.439,450.924c-2.272688,3.688711-6.63419,5.530796-10.863,4.588-2.275166-.500046-4.282188-1.830336-5.629-3.731-2.711-4.061-2.064-11.063,3.036-14.131c4.406052-2.572502,10.040448-1.436164,13.105,2.643c2.192958,3.166671,2.330242,7.323538.351,10.628v0ZM36.879,287c-2.272688,3.688711-6.63419,5.530796-10.863,4.588-2.275052-.50093-4.281888-1.831452-5.629-3.732-2.71-4.06-2.064-11.062,3.037-14.13c4.406052-2.572502,10.040448-1.436164,13.105,2.643c2.193677,3.167637,2.330579,7.325936.35,10.631v0Z" fill="#5ce1e6" fill-rule="evenodd"/><path id="right_dots-u-path-42" d="M292.218,137.034c11.247-3.292,24.672,10.685,22.814,19.851-.834,4.115-4.554,6.336-5.34,6.779-9.4,5.3-27.207-2.423-27.911-12.831-.395-5.839,4.62-12.1,10.437-13.8v0Z" fill="#39a834" fill-rule="evenodd"/><path id="right_dots-u-path-43" d="M141.9,285.814c11.246-3.292,24.671,10.685,22.813,19.851-.834,4.114-4.554,6.336-5.339,6.779-9.4,5.3-27.2-2.423-27.911-12.831-.396-5.839,4.62-12.096,10.437-13.799Z" fill="#fff0a6" fill-rule="evenodd"/><path id="right_dots-u-path-44" d="M557.976,334.42c11.247-3.291,24.672,10.686,22.814,19.852-.834,4.114-4.554,6.336-5.339,6.779-9.4,5.3-27.207-2.424-27.912-12.832-.395-5.838,4.621-12.096,10.437-13.799Z" fill="#39a834" fill-rule="evenodd"/></svg>
